# xmcd
# 
# Track frame offsets:
#     150
#     20130
#     40210
#     60605
#     81067
# 
# Disc length: 1378
# 
# Revision: 2
# Processed by: cddbd v1.5.2PL0 Copyright (c) Steve Scherf et al.
# Submitted via: fre:ac v1.0.31
# 
DISCID=39056005
DTITLE=R. Kelly - Did You Ever Think (EP)
DYEAR=1999
DGENRE=R&B
TTITLE0=Did You Ever Think (Nas Remix)
TTITLE1=Did You Ever Think (Instrumental Remix)
TTITLE2=Did You Ever Think (Album Version)
TTITLE3=Did You Ever Think (Album Version Instrumental)
TTITLE4=Home Alone (Feat. Keith Murray)
EXTD=
EXTT0=
EXTT1=
EXTT2=
EXTT3=
EXTT4=
PLAYORDER=
